<mxfile host="app.diagrams.net" modified="2023-11-28T13:21:51.289Z" agent="Mozilla/5.0 (Windows NT 10.0; Win64; x64) AppleWebKit/537.36 (KHTML, like Gecko) Chrome/119.0.0.0 Safari/537.36 Edg/119.0.0.0" etag="8wzxdwvCPkzYBxz80TYH" version="22.1.4" type="github">
  <diagram name="第 1 页" id="ohsESuo8HkVxZWVoVgTU">
    <mxGraphModel dx="1194" dy="639" grid="1" gridSize="10" guides="1" tooltips="1" connect="1" arrows="1" fold="1" page="1" pageScale="1" pageWidth="2339" pageHeight="3300" math="0" shadow="0">
      <root>
        <mxCell id="0" />
        <mxCell id="1" parent="0" />
        <mxCell id="Z0N0WmhCl9u8rLO1W-fp-1" value="&lt;font style=&quot;font-size: 18px;&quot;&gt;基于单片机控制的四足机器人系统与平台设计&lt;/font&gt;" style="rounded=1;whiteSpace=wrap;html=1;fillColor=#a20025;fontColor=#ffffff;strokeColor=#6F0000;" vertex="1" parent="1">
          <mxGeometry x="300" y="110" width="540" height="60" as="geometry" />
        </mxCell>
        <mxCell id="Z0N0WmhCl9u8rLO1W-fp-2" value="&lt;font style=&quot;font-size: 16px;&quot;&gt;硬件系统设计&lt;/font&gt;" style="rounded=1;whiteSpace=wrap;html=1;fillColor=#f9f7ed;strokeColor=#36393d;" vertex="1" parent="1">
          <mxGeometry x="490" y="215" width="150" height="60" as="geometry" />
        </mxCell>
        <mxCell id="Z0N0WmhCl9u8rLO1W-fp-3" value="&lt;font style=&quot;font-size: 16px;&quot;&gt;系统功能设计&lt;/font&gt;" style="rounded=1;whiteSpace=wrap;html=1;fillColor=#eeeeee;strokeColor=#36393d;" vertex="1" parent="1">
          <mxGeometry x="300" y="215" width="150" height="60" as="geometry" />
        </mxCell>
        <mxCell id="Z0N0WmhCl9u8rLO1W-fp-4" value="&lt;font style=&quot;font-size: 16px;&quot;&gt;机器人系统&lt;br&gt;控制仿真测试&lt;/font&gt;" style="rounded=1;whiteSpace=wrap;html=1;fillColor=#eeeeee;strokeColor=#36393d;" vertex="1" parent="1">
          <mxGeometry x="300" y="330" width="150" height="60" as="geometry" />
        </mxCell>
        <mxCell id="Z0N0WmhCl9u8rLO1W-fp-5" value="&lt;font style=&quot;font-size: 16px;&quot;&gt;机械结构设计&lt;/font&gt;" style="rounded=1;whiteSpace=wrap;html=1;fillColor=#f9f7ed;strokeColor=#36393d;" vertex="1" parent="1">
          <mxGeometry x="490" y="330" width="150" height="60" as="geometry" />
        </mxCell>
        <mxCell id="Z0N0WmhCl9u8rLO1W-fp-6" value="&lt;font style=&quot;font-size: 16px;&quot;&gt;实物设计&lt;/font&gt;" style="rounded=1;whiteSpace=wrap;html=1;fillColor=#bac8d3;strokeColor=#23445d;" vertex="1" parent="1">
          <mxGeometry x="680" y="330" width="160" height="60" as="geometry" />
        </mxCell>
        <mxCell id="Z0N0WmhCl9u8rLO1W-fp-7" value="&lt;font style=&quot;font-size: 16px;&quot;&gt;机器人整体系统设计&lt;/font&gt;" style="rounded=1;whiteSpace=wrap;html=1;fillColor=#ffcccc;strokeColor=#36393d;" vertex="1" parent="1">
          <mxGeometry x="300" y="440" width="150" height="60" as="geometry" />
        </mxCell>
        <mxCell id="Z0N0WmhCl9u8rLO1W-fp-8" value="&lt;font style=&quot;font-size: 16px;&quot;&gt;机器人系统架构设计&lt;/font&gt;" style="rounded=1;whiteSpace=wrap;html=1;fillColor=#f8cecc;strokeColor=#b85450;" vertex="1" parent="1">
          <mxGeometry x="490" y="440" width="150" height="60" as="geometry" />
        </mxCell>
        <mxCell id="Z0N0WmhCl9u8rLO1W-fp-9" value="&lt;font style=&quot;font-size: 16px;&quot;&gt;硬件测试&lt;/font&gt;" style="rounded=1;whiteSpace=wrap;html=1;fillColor=#eeeeee;strokeColor=#36393d;" vertex="1" parent="1">
          <mxGeometry x="300" y="550" width="150" height="60" as="geometry" />
        </mxCell>
        <mxCell id="Z0N0WmhCl9u8rLO1W-fp-10" value="&lt;font style=&quot;font-size: 16px;&quot;&gt;软件测试&lt;/font&gt;" style="rounded=1;whiteSpace=wrap;html=1;fillColor=#f9f7ed;strokeColor=#36393d;" vertex="1" parent="1">
          <mxGeometry x="490" y="550" width="150" height="60" as="geometry" />
        </mxCell>
        <mxCell id="Z0N0WmhCl9u8rLO1W-fp-11" value="&lt;font style=&quot;font-size: 16px;&quot;&gt;软件应用&lt;/font&gt;" style="rounded=1;whiteSpace=wrap;html=1;fillColor=#bac8d3;strokeColor=#23445d;" vertex="1" parent="1">
          <mxGeometry x="680" y="550" width="160" height="60" as="geometry" />
        </mxCell>
        <mxCell id="Z0N0WmhCl9u8rLO1W-fp-12" value="&lt;font style=&quot;font-size: 16px;&quot;&gt;第二章&lt;/font&gt;" style="text;html=1;strokeColor=none;fillColor=none;align=center;verticalAlign=middle;whiteSpace=wrap;rounded=0;" vertex="1" parent="1">
          <mxGeometry x="200" y="230" width="60" height="30" as="geometry" />
        </mxCell>
        <mxCell id="Z0N0WmhCl9u8rLO1W-fp-14" value="&lt;font style=&quot;font-size: 16px;&quot;&gt;第三章&lt;/font&gt;" style="text;html=1;strokeColor=none;fillColor=none;align=center;verticalAlign=middle;whiteSpace=wrap;rounded=0;" vertex="1" parent="1">
          <mxGeometry x="200" y="345" width="60" height="30" as="geometry" />
        </mxCell>
        <mxCell id="Z0N0WmhCl9u8rLO1W-fp-15" value="&lt;font style=&quot;font-size: 16px;&quot;&gt;第四章&lt;/font&gt;" style="text;html=1;strokeColor=none;fillColor=none;align=center;verticalAlign=middle;whiteSpace=wrap;rounded=0;" vertex="1" parent="1">
          <mxGeometry x="200" y="455" width="60" height="30" as="geometry" />
        </mxCell>
        <mxCell id="Z0N0WmhCl9u8rLO1W-fp-16" value="&lt;font style=&quot;font-size: 16px;&quot;&gt;第五章&lt;/font&gt;" style="text;html=1;strokeColor=none;fillColor=none;align=center;verticalAlign=middle;whiteSpace=wrap;rounded=0;" vertex="1" parent="1">
          <mxGeometry x="200" y="565" width="60" height="30" as="geometry" />
        </mxCell>
        <mxCell id="Z0N0WmhCl9u8rLO1W-fp-19" value="&lt;span style=&quot;font-size: 16px;&quot;&gt;主控选配&lt;/span&gt;" style="rounded=1;whiteSpace=wrap;html=1;fillColor=#bac8d3;strokeColor=#23445d;" vertex="1" parent="1">
          <mxGeometry x="680" y="215" width="160" height="60" as="geometry" />
        </mxCell>
        <mxCell id="Z0N0WmhCl9u8rLO1W-fp-20" value="&lt;font style=&quot;font-size: 16px;&quot;&gt;机器人软件系统设计&lt;/font&gt;" style="rounded=1;whiteSpace=wrap;html=1;fillColor=#ffcccc;strokeColor=#36393d;" vertex="1" parent="1">
          <mxGeometry x="680" y="440" width="160" height="60" as="geometry" />
        </mxCell>
      </root>
    </mxGraphModel>
  </diagram>
</mxfile>
